<mxfile host="Electron" agent="Mozilla/5.0 (Windows NT 10.0; Win64; x64) AppleWebKit/537.36 (KHTML, like Gecko) draw.io/26.0.16 Chrome/132.0.6834.196 Electron/34.2.0 Safari/537.36" version="26.0.16">
  <diagram name="Страница — 1" id="R4HWGQyGJUgQoBAi_ApH">
    <mxGraphModel dx="2390" dy="1473" grid="1" gridSize="10" guides="1" tooltips="1" connect="1" arrows="1" fold="1" page="1" pageScale="1" pageWidth="827" pageHeight="1169" math="0" shadow="0">
      <root>
        <mxCell id="0" />
        <mxCell id="1" parent="0" />
        <mxCell id="68l0iQlNKDBm8srt5MXa-6" value="" style="rounded=0;whiteSpace=wrap;html=1;fillColor=none;movable=0;resizable=0;rotatable=0;deletable=0;editable=0;locked=1;connectable=0;" parent="1" vertex="1">
          <mxGeometry x="320" y="20" width="810" height="1040" as="geometry" />
        </mxCell>
        <mxCell id="68l0iQlNKDBm8srt5MXa-17" style="edgeStyle=orthogonalEdgeStyle;rounded=0;orthogonalLoop=1;jettySize=auto;html=1;" parent="1" source="68l0iQlNKDBm8srt5MXa-1" target="68l0iQlNKDBm8srt5MXa-16" edge="1">
          <mxGeometry relative="1" as="geometry" />
        </mxCell>
        <mxCell id="68l0iQlNKDBm8srt5MXa-1" value="Пользователь" style="shape=umlActor;verticalLabelPosition=bottom;verticalAlign=top;html=1;outlineConnect=0;" parent="1" vertex="1">
          <mxGeometry x="220" y="50" width="30" height="60" as="geometry" />
        </mxCell>
        <mxCell id="68l0iQlNKDBm8srt5MXa-20" style="edgeStyle=orthogonalEdgeStyle;rounded=0;orthogonalLoop=1;jettySize=auto;html=1;entryX=0.5;entryY=0;entryDx=0;entryDy=0;" parent="1" source="68l0iQlNKDBm8srt5MXa-2" target="68l0iQlNKDBm8srt5MXa-19" edge="1">
          <mxGeometry relative="1" as="geometry">
            <Array as="points">
              <mxPoint x="460" y="390" />
              <mxPoint x="460" y="370" />
              <mxPoint x="570" y="370" />
            </Array>
          </mxGeometry>
        </mxCell>
        <mxCell id="68l0iQlNKDBm8srt5MXa-22" style="edgeStyle=orthogonalEdgeStyle;rounded=0;orthogonalLoop=1;jettySize=auto;html=1;entryX=0.5;entryY=0;entryDx=0;entryDy=0;" parent="1" source="68l0iQlNKDBm8srt5MXa-2" target="68l0iQlNKDBm8srt5MXa-21" edge="1">
          <mxGeometry relative="1" as="geometry">
            <Array as="points">
              <mxPoint x="460" y="390" />
              <mxPoint x="460" y="370" />
              <mxPoint x="730" y="370" />
            </Array>
          </mxGeometry>
        </mxCell>
        <mxCell id="68l0iQlNKDBm8srt5MXa-24" style="edgeStyle=orthogonalEdgeStyle;rounded=0;orthogonalLoop=1;jettySize=auto;html=1;entryX=0.5;entryY=0;entryDx=0;entryDy=0;" parent="1" source="68l0iQlNKDBm8srt5MXa-2" target="68l0iQlNKDBm8srt5MXa-23" edge="1">
          <mxGeometry relative="1" as="geometry">
            <Array as="points">
              <mxPoint x="460" y="390" />
              <mxPoint x="460" y="370" />
              <mxPoint x="880" y="370" />
            </Array>
          </mxGeometry>
        </mxCell>
        <mxCell id="68l0iQlNKDBm8srt5MXa-63" style="edgeStyle=orthogonalEdgeStyle;rounded=0;orthogonalLoop=1;jettySize=auto;html=1;endArrow=block;endFill=0;" parent="1" source="68l0iQlNKDBm8srt5MXa-2" target="68l0iQlNKDBm8srt5MXa-60" edge="1">
          <mxGeometry relative="1" as="geometry" />
        </mxCell>
        <mxCell id="68l0iQlNKDBm8srt5MXa-2" value="Участник&lt;div&gt;&lt;br&gt;&lt;/div&gt;" style="shape=umlActor;verticalLabelPosition=bottom;verticalAlign=top;html=1;outlineConnect=0;" parent="1" vertex="1">
          <mxGeometry x="220" y="360" width="30" height="60" as="geometry" />
        </mxCell>
        <mxCell id="68l0iQlNKDBm8srt5MXa-26" style="edgeStyle=orthogonalEdgeStyle;rounded=0;orthogonalLoop=1;jettySize=auto;html=1;" parent="1" source="68l0iQlNKDBm8srt5MXa-3" target="68l0iQlNKDBm8srt5MXa-25" edge="1">
          <mxGeometry relative="1" as="geometry">
            <Array as="points">
              <mxPoint x="330" y="800" />
              <mxPoint x="330" y="800" />
            </Array>
          </mxGeometry>
        </mxCell>
        <mxCell id="68l0iQlNKDBm8srt5MXa-28" style="edgeStyle=orthogonalEdgeStyle;rounded=0;orthogonalLoop=1;jettySize=auto;html=1;entryX=0.5;entryY=0;entryDx=0;entryDy=0;" parent="1" source="68l0iQlNKDBm8srt5MXa-3" target="68l0iQlNKDBm8srt5MXa-27" edge="1">
          <mxGeometry relative="1" as="geometry">
            <Array as="points">
              <mxPoint x="350" y="800" />
              <mxPoint x="350" y="750" />
              <mxPoint x="590" y="750" />
            </Array>
          </mxGeometry>
        </mxCell>
        <mxCell id="68l0iQlNKDBm8srt5MXa-65" style="edgeStyle=orthogonalEdgeStyle;rounded=0;orthogonalLoop=1;jettySize=auto;html=1;entryX=0.5;entryY=0.5;entryDx=0;entryDy=0;entryPerimeter=0;endArrow=block;endFill=0;" parent="1" source="68l0iQlNKDBm8srt5MXa-3" target="68l0iQlNKDBm8srt5MXa-60" edge="1">
          <mxGeometry relative="1" as="geometry">
            <mxPoint x="100" y="269.9999999999999" as="targetPoint" />
            <Array as="points">
              <mxPoint x="150" y="800" />
              <mxPoint x="150" y="220" />
            </Array>
          </mxGeometry>
        </mxCell>
        <mxCell id="68l0iQlNKDBm8srt5MXa-69" style="edgeStyle=orthogonalEdgeStyle;rounded=0;orthogonalLoop=1;jettySize=auto;html=1;entryX=0.5;entryY=0;entryDx=0;entryDy=0;" parent="1" source="68l0iQlNKDBm8srt5MXa-3" target="68l0iQlNKDBm8srt5MXa-30" edge="1">
          <mxGeometry relative="1" as="geometry">
            <Array as="points">
              <mxPoint x="350" y="800" />
              <mxPoint x="350" y="750" />
              <mxPoint x="760" y="750" />
            </Array>
          </mxGeometry>
        </mxCell>
        <mxCell id="68l0iQlNKDBm8srt5MXa-3" value="&lt;div&gt;Модератор&lt;/div&gt;" style="shape=umlActor;verticalLabelPosition=bottom;verticalAlign=top;html=1;outlineConnect=0;" parent="1" vertex="1">
          <mxGeometry x="210" y="770" width="30" height="60" as="geometry" />
        </mxCell>
        <mxCell id="68l0iQlNKDBm8srt5MXa-34" style="edgeStyle=orthogonalEdgeStyle;rounded=0;orthogonalLoop=1;jettySize=auto;html=1;" parent="1" source="68l0iQlNKDBm8srt5MXa-4" target="68l0iQlNKDBm8srt5MXa-33" edge="1">
          <mxGeometry relative="1" as="geometry" />
        </mxCell>
        <mxCell id="68l0iQlNKDBm8srt5MXa-36" style="edgeStyle=orthogonalEdgeStyle;rounded=0;orthogonalLoop=1;jettySize=auto;html=1;entryX=0.5;entryY=0;entryDx=0;entryDy=0;" parent="1" source="68l0iQlNKDBm8srt5MXa-4" target="68l0iQlNKDBm8srt5MXa-35" edge="1">
          <mxGeometry relative="1" as="geometry">
            <Array as="points">
              <mxPoint x="350" y="570" />
              <mxPoint x="350" y="510" />
              <mxPoint x="570" y="510" />
            </Array>
          </mxGeometry>
        </mxCell>
        <mxCell id="68l0iQlNKDBm8srt5MXa-39" style="edgeStyle=orthogonalEdgeStyle;rounded=0;orthogonalLoop=1;jettySize=auto;html=1;entryX=0.5;entryY=0;entryDx=0;entryDy=0;" parent="1" source="68l0iQlNKDBm8srt5MXa-4" target="68l0iQlNKDBm8srt5MXa-37" edge="1">
          <mxGeometry relative="1" as="geometry">
            <Array as="points">
              <mxPoint x="350" y="570" />
              <mxPoint x="350" y="510" />
              <mxPoint x="720" y="510" />
            </Array>
          </mxGeometry>
        </mxCell>
        <mxCell id="68l0iQlNKDBm8srt5MXa-40" style="edgeStyle=orthogonalEdgeStyle;rounded=0;orthogonalLoop=1;jettySize=auto;html=1;entryX=0.5;entryY=0;entryDx=0;entryDy=0;" parent="1" source="68l0iQlNKDBm8srt5MXa-4" target="68l0iQlNKDBm8srt5MXa-38" edge="1">
          <mxGeometry relative="1" as="geometry">
            <Array as="points">
              <mxPoint x="350" y="570" />
              <mxPoint x="350" y="510" />
              <mxPoint x="880" y="510" />
            </Array>
          </mxGeometry>
        </mxCell>
        <mxCell id="68l0iQlNKDBm8srt5MXa-4" value="Организатор" style="shape=umlActor;verticalLabelPosition=bottom;verticalAlign=top;html=1;outlineConnect=0;" parent="1" vertex="1">
          <mxGeometry x="210" y="540" width="30" height="60" as="geometry" />
        </mxCell>
        <mxCell id="68l0iQlNKDBm8srt5MXa-42" style="edgeStyle=orthogonalEdgeStyle;rounded=0;orthogonalLoop=1;jettySize=auto;html=1;entryX=0;entryY=0.5;entryDx=0;entryDy=0;" parent="1" source="68l0iQlNKDBm8srt5MXa-5" target="68l0iQlNKDBm8srt5MXa-41" edge="1">
          <mxGeometry relative="1" as="geometry" />
        </mxCell>
        <mxCell id="68l0iQlNKDBm8srt5MXa-5" value="Жюри&lt;div&gt;&lt;br&gt;&lt;/div&gt;" style="shape=umlActor;verticalLabelPosition=bottom;verticalAlign=top;html=1;outlineConnect=0;" parent="1" vertex="1">
          <mxGeometry x="220" y="920" width="30" height="60" as="geometry" />
        </mxCell>
        <mxCell id="68l0iQlNKDBm8srt5MXa-7" value="Зарегистрироваться в системе" style="ellipse;whiteSpace=wrap;html=1;" parent="1" vertex="1">
          <mxGeometry x="510" y="250" width="120" height="80" as="geometry" />
        </mxCell>
        <mxCell id="68l0iQlNKDBm8srt5MXa-13" value="Авторизоваться в системе" style="ellipse;whiteSpace=wrap;html=1;" parent="1" vertex="1">
          <mxGeometry x="510" y="150" width="120" height="80" as="geometry" />
        </mxCell>
        <mxCell id="68l0iQlNKDBm8srt5MXa-16" value="Просмотр информации о мероприятиях" style="ellipse;whiteSpace=wrap;html=1;" parent="1" vertex="1">
          <mxGeometry x="510" y="40" width="120" height="80" as="geometry" />
        </mxCell>
        <mxCell id="68l0iQlNKDBm8srt5MXa-19" value="Редактирование профиля" style="ellipse;whiteSpace=wrap;html=1;" parent="1" vertex="1">
          <mxGeometry x="510" y="400" width="120" height="80" as="geometry" />
        </mxCell>
        <mxCell id="68l0iQlNKDBm8srt5MXa-21" value="Участие в групповых активностях" style="ellipse;whiteSpace=wrap;html=1;" parent="1" vertex="1">
          <mxGeometry x="670" y="400" width="120" height="80" as="geometry" />
        </mxCell>
        <mxCell id="68l0iQlNKDBm8srt5MXa-23" value="Просмотр результатов и баллов" style="ellipse;whiteSpace=wrap;html=1;" parent="1" vertex="1">
          <mxGeometry x="820" y="400" width="120" height="80" as="geometry" />
        </mxCell>
        <mxCell id="68l0iQlNKDBm8srt5MXa-25" value="Зарегестрироваться на мероприятие" style="ellipse;whiteSpace=wrap;html=1;" parent="1" vertex="1">
          <mxGeometry x="380" y="770" width="120" height="80" as="geometry" />
        </mxCell>
        <mxCell id="68l0iQlNKDBm8srt5MXa-27" value="Выбрать активность для модерации" style="ellipse;whiteSpace=wrap;html=1;" parent="1" vertex="1">
          <mxGeometry x="530" y="770" width="120" height="80" as="geometry" />
        </mxCell>
        <mxCell id="68l0iQlNKDBm8srt5MXa-30" value="Координация участников в рамках своей активности" style="ellipse;whiteSpace=wrap;html=1;" parent="1" vertex="1">
          <mxGeometry x="700" y="780" width="120" height="80" as="geometry" />
        </mxCell>
        <mxCell id="68l0iQlNKDBm8srt5MXa-33" value="Управление участниками мероприятий" style="ellipse;whiteSpace=wrap;html=1;" parent="1" vertex="1">
          <mxGeometry x="380" y="530" width="120" height="80" as="geometry" />
        </mxCell>
        <mxCell id="68l0iQlNKDBm8srt5MXa-35" value="Управление информацией о событиях" style="ellipse;whiteSpace=wrap;html=1;" parent="1" vertex="1">
          <mxGeometry x="510" y="530" width="120" height="80" as="geometry" />
        </mxCell>
        <mxCell id="68l0iQlNKDBm8srt5MXa-37" value="Добавление мероприятий" style="ellipse;whiteSpace=wrap;html=1;" parent="1" vertex="1">
          <mxGeometry x="660" y="530" width="120" height="80" as="geometry" />
        </mxCell>
        <mxCell id="68l0iQlNKDBm8srt5MXa-38" value="Добавление активностей в рамках мероприятий" style="ellipse;whiteSpace=wrap;html=1;" parent="1" vertex="1">
          <mxGeometry x="810" y="530" width="140" height="80" as="geometry" />
        </mxCell>
        <mxCell id="68l0iQlNKDBm8srt5MXa-41" value="Просмотр информации о активностях, которые он оценивает" style="ellipse;whiteSpace=wrap;html=1;" parent="1" vertex="1">
          <mxGeometry x="380" y="910" width="120" height="80" as="geometry" />
        </mxCell>
        <mxCell id="68l0iQlNKDBm8srt5MXa-87" style="edgeStyle=orthogonalEdgeStyle;rounded=0;orthogonalLoop=1;jettySize=auto;html=1;dashed=1;" parent="1" source="68l0iQlNKDBm8srt5MXa-43" target="68l0iQlNKDBm8srt5MXa-41" edge="1">
          <mxGeometry relative="1" as="geometry" />
        </mxCell>
        <mxCell id="68l0iQlNKDBm8srt5MXa-43" value="&lt;font style=&quot;font-size: 9px;&quot;&gt;Просмотр информации об участниках котрых он оценивает&lt;/font&gt;" style="ellipse;whiteSpace=wrap;html=1;" parent="1" vertex="1">
          <mxGeometry x="552.5" y="970" width="105" height="80" as="geometry" />
        </mxCell>
        <mxCell id="68l0iQlNKDBm8srt5MXa-44" value="&lt;font style=&quot;font-size: 8px;&quot;&gt;Просмотр информации об оценках в рамках активностей, которые он оценивает&lt;/font&gt;" style="ellipse;whiteSpace=wrap;html=1;" parent="1" vertex="1">
          <mxGeometry x="550" y="870" width="110" height="80" as="geometry" />
        </mxCell>
        <mxCell id="68l0iQlNKDBm8srt5MXa-67" style="edgeStyle=orthogonalEdgeStyle;rounded=0;orthogonalLoop=1;jettySize=auto;html=1;" parent="1" source="68l0iQlNKDBm8srt5MXa-60" target="68l0iQlNKDBm8srt5MXa-13" edge="1">
          <mxGeometry relative="1" as="geometry" />
        </mxCell>
        <mxCell id="68l0iQlNKDBm8srt5MXa-68" style="edgeStyle=orthogonalEdgeStyle;rounded=0;orthogonalLoop=1;jettySize=auto;html=1;entryX=0;entryY=0.5;entryDx=0;entryDy=0;" parent="1" source="68l0iQlNKDBm8srt5MXa-60" target="68l0iQlNKDBm8srt5MXa-7" edge="1">
          <mxGeometry relative="1" as="geometry" />
        </mxCell>
        <mxCell id="uXunngbw61bsZkDDgrYs-1" style="edgeStyle=orthogonalEdgeStyle;rounded=0;orthogonalLoop=1;jettySize=auto;html=1;endArrow=block;endFill=0;" edge="1" parent="1" source="68l0iQlNKDBm8srt5MXa-60">
          <mxGeometry relative="1" as="geometry">
            <mxPoint x="235" y="130" as="targetPoint" />
          </mxGeometry>
        </mxCell>
        <mxCell id="68l0iQlNKDBm8srt5MXa-60" value="&lt;div&gt;Пользователь &lt;br&gt;закрытой части&lt;/div&gt;" style="shape=umlActor;verticalLabelPosition=bottom;verticalAlign=top;html=1;outlineConnect=0;" parent="1" vertex="1">
          <mxGeometry x="220" y="190" width="30" height="60" as="geometry" />
        </mxCell>
        <mxCell id="68l0iQlNKDBm8srt5MXa-64" style="edgeStyle=orthogonalEdgeStyle;rounded=0;orthogonalLoop=1;jettySize=auto;html=1;entryX=0.5;entryY=0.5;entryDx=0;entryDy=0;entryPerimeter=0;endArrow=block;endFill=0;" parent="1" source="68l0iQlNKDBm8srt5MXa-4" target="68l0iQlNKDBm8srt5MXa-60" edge="1">
          <mxGeometry relative="1" as="geometry">
            <Array as="points">
              <mxPoint x="150" y="570" />
              <mxPoint x="150" y="220" />
            </Array>
          </mxGeometry>
        </mxCell>
        <mxCell id="68l0iQlNKDBm8srt5MXa-66" style="edgeStyle=orthogonalEdgeStyle;rounded=0;orthogonalLoop=1;jettySize=auto;html=1;entryX=0.5;entryY=0.5;entryDx=0;entryDy=0;entryPerimeter=0;endArrow=block;endFill=0;" parent="1" source="68l0iQlNKDBm8srt5MXa-5" target="68l0iQlNKDBm8srt5MXa-60" edge="1">
          <mxGeometry relative="1" as="geometry">
            <Array as="points">
              <mxPoint x="150" y="950" />
              <mxPoint x="150" y="220" />
            </Array>
          </mxGeometry>
        </mxCell>
        <mxCell id="68l0iQlNKDBm8srt5MXa-74" style="edgeStyle=orthogonalEdgeStyle;rounded=0;orthogonalLoop=1;jettySize=auto;html=1;entryX=0.687;entryY=0.967;entryDx=0;entryDy=0;dashed=1;entryPerimeter=0;" parent="1" source="68l0iQlNKDBm8srt5MXa-70" target="68l0iQlNKDBm8srt5MXa-33" edge="1">
          <mxGeometry relative="1" as="geometry">
            <Array as="points">
              <mxPoint x="390" y="630" />
              <mxPoint x="470" y="630" />
              <mxPoint x="470" y="620" />
              <mxPoint x="462" y="620" />
            </Array>
          </mxGeometry>
        </mxCell>
        <mxCell id="68l0iQlNKDBm8srt5MXa-70" value="Управления спонсарами" style="ellipse;whiteSpace=wrap;html=1;" parent="1" vertex="1">
          <mxGeometry x="330" y="650" width="120" height="80" as="geometry" />
        </mxCell>
        <mxCell id="68l0iQlNKDBm8srt5MXa-75" style="edgeStyle=orthogonalEdgeStyle;rounded=0;orthogonalLoop=1;jettySize=auto;html=1;entryX=0.5;entryY=1;entryDx=0;entryDy=0;dashed=1;" parent="1" source="68l0iQlNKDBm8srt5MXa-71" target="68l0iQlNKDBm8srt5MXa-33" edge="1">
          <mxGeometry relative="1" as="geometry" />
        </mxCell>
        <mxCell id="68l0iQlNKDBm8srt5MXa-71" value="Управления участниками" style="ellipse;whiteSpace=wrap;html=1;" parent="1" vertex="1">
          <mxGeometry x="460" y="650" width="120" height="80" as="geometry" />
        </mxCell>
        <mxCell id="68l0iQlNKDBm8srt5MXa-76" style="edgeStyle=orthogonalEdgeStyle;rounded=0;orthogonalLoop=1;jettySize=auto;html=1;dashed=1;entryX=0.579;entryY=1.003;entryDx=0;entryDy=0;entryPerimeter=0;" parent="1" target="68l0iQlNKDBm8srt5MXa-33" edge="1">
          <mxGeometry relative="1" as="geometry">
            <mxPoint x="440" y="650" as="targetPoint" />
            <mxPoint x="650" y="680" as="sourcePoint" />
            <Array as="points">
              <mxPoint x="650" y="640" />
              <mxPoint x="450" y="640" />
              <mxPoint x="450" y="610" />
            </Array>
          </mxGeometry>
        </mxCell>
        <mxCell id="68l0iQlNKDBm8srt5MXa-72" value="Управления модераторами" style="ellipse;whiteSpace=wrap;html=1;" parent="1" vertex="1">
          <mxGeometry x="590" y="650" width="120" height="80" as="geometry" />
        </mxCell>
        <mxCell id="68l0iQlNKDBm8srt5MXa-77" style="edgeStyle=orthogonalEdgeStyle;rounded=0;orthogonalLoop=1;jettySize=auto;html=1;entryX=0.871;entryY=0.813;entryDx=0;entryDy=0;dashed=1;entryPerimeter=0;" parent="1" target="68l0iQlNKDBm8srt5MXa-33" edge="1">
          <mxGeometry relative="1" as="geometry">
            <mxPoint x="789.9999999999999" y="650" as="sourcePoint" />
            <mxPoint x="492.42640687119297" y="598.2842712474619" as="targetPoint" />
            <Array as="points">
              <mxPoint x="790" y="630" />
              <mxPoint x="490" y="630" />
              <mxPoint x="490" y="610" />
              <mxPoint x="485" y="610" />
            </Array>
          </mxGeometry>
        </mxCell>
        <mxCell id="68l0iQlNKDBm8srt5MXa-73" value="Управления жюри" style="ellipse;whiteSpace=wrap;html=1;" parent="1" vertex="1">
          <mxGeometry x="720" y="650" width="120" height="80" as="geometry" />
        </mxCell>
        <mxCell id="68l0iQlNKDBm8srt5MXa-79" value="&lt;font style=&quot;font-size: 7px;&quot;&gt;&quot;include&quot;&lt;/font&gt;" style="text;html=1;align=center;verticalAlign=middle;whiteSpace=wrap;rounded=0;" parent="1" vertex="1">
          <mxGeometry x="500" y="610" width="20" height="10" as="geometry" />
        </mxCell>
        <mxCell id="68l0iQlNKDBm8srt5MXa-80" value="&lt;font style=&quot;font-size: 7px;&quot;&gt;&quot;include&quot;&lt;/font&gt;" style="text;html=1;align=center;verticalAlign=middle;whiteSpace=wrap;rounded=0;" parent="1" vertex="1">
          <mxGeometry x="560" y="630" width="20" height="10" as="geometry" />
        </mxCell>
        <mxCell id="68l0iQlNKDBm8srt5MXa-81" value="&lt;font style=&quot;font-size: 7px;&quot;&gt;&quot;include&quot;&lt;/font&gt;" style="text;html=1;align=center;verticalAlign=middle;whiteSpace=wrap;rounded=0;" parent="1" vertex="1">
          <mxGeometry x="404" y="620" width="20" height="10" as="geometry" />
        </mxCell>
        <mxCell id="68l0iQlNKDBm8srt5MXa-85" value="&lt;font style=&quot;font-size: 7px;&quot;&gt;&quot;include&quot;&lt;/font&gt;" style="text;html=1;align=center;verticalAlign=middle;whiteSpace=wrap;rounded=0;" parent="1" vertex="1">
          <mxGeometry x="470" y="630" width="20" height="10" as="geometry" />
        </mxCell>
        <mxCell id="68l0iQlNKDBm8srt5MXa-86" style="edgeStyle=orthogonalEdgeStyle;rounded=0;orthogonalLoop=1;jettySize=auto;html=1;entryX=0.954;entryY=0.31;entryDx=0;entryDy=0;entryPerimeter=0;dashed=1;" parent="1" source="68l0iQlNKDBm8srt5MXa-44" target="68l0iQlNKDBm8srt5MXa-41" edge="1">
          <mxGeometry relative="1" as="geometry" />
        </mxCell>
        <mxCell id="68l0iQlNKDBm8srt5MXa-88" value="&lt;font style=&quot;font-size: 7px;&quot;&gt;&quot;include&quot;&lt;/font&gt;" style="text;html=1;align=center;verticalAlign=middle;whiteSpace=wrap;rounded=0;" parent="1" vertex="1">
          <mxGeometry x="520" y="890" width="20" height="10" as="geometry" />
        </mxCell>
        <mxCell id="68l0iQlNKDBm8srt5MXa-89" value="&lt;font style=&quot;font-size: 7px;&quot;&gt;&quot;include&quot;&lt;/font&gt;" style="text;html=1;align=center;verticalAlign=middle;whiteSpace=wrap;rounded=0;" parent="1" vertex="1">
          <mxGeometry x="532.5" y="970" width="20" height="10" as="geometry" />
        </mxCell>
      </root>
    </mxGraphModel>
  </diagram>
</mxfile>
